<svg width="462" height="81" viewBox="0 0 462 81" fill="none" xmlns="http://www.w3.org/2000/svg">
<path d="M19.7031 56.4297C20.849 56.4297 21.9557 56.3516 23.0234 56.1953C24.0911 56.013 24.9375 55.8307 25.5625 55.6484V60.6094C24.8594 60.9479 23.8177 61.2214 22.4375 61.4297C21.0833 61.6641 19.8594 61.7812 18.7656 61.7812C10.4844 61.7812 6.34375 57.4193 6.34375 48.6953V23.2266H0.210938V20.1016L6.34375 17.4062L9.07812 8.26562H12.8281V18.1875H25.25V23.2266H12.8281V48.4219C12.8281 51 13.4401 52.9792 14.6641 54.3594C15.888 55.7396 17.5677 56.4297 19.7031 56.4297ZM63.4531 61V33.3047C63.4531 29.8151 62.6589 27.2109 61.0703 25.4922C59.4818 23.7734 56.9948 22.9141 53.6094 22.9141C49.1042 22.9141 45.8099 24.138 43.7266 26.5859C41.6693 29.0339 40.6406 33.0443 40.6406 38.6172V61H34.1562V0.21875H40.6406V18.6172C40.6406 20.8307 40.5365 22.6667 40.3281 24.125H40.7188C41.9948 22.0677 43.8047 20.4531 46.1484 19.2812C48.5182 18.0833 51.2135 17.4844 54.2344 17.4844C59.4688 17.4844 63.388 18.7344 65.9922 21.2344C68.6224 23.7083 69.9375 27.6536 69.9375 33.0703V61H63.4531ZM101.383 61.7812C95.0547 61.7812 90.0547 59.8542 86.3828 56C82.737 52.1458 80.9141 46.7943 80.9141 39.9453C80.9141 33.0443 82.6068 27.5625 85.9922 23.5C89.4036 19.4375 93.974 17.4062 99.7031 17.4062C105.068 17.4062 109.312 19.1771 112.438 22.7188C115.562 26.2344 117.125 30.8828 117.125 36.6641V40.7656H87.6328C87.763 45.7917 89.026 49.6068 91.4219 52.2109C93.8438 54.8151 97.2422 56.1172 101.617 56.1172C106.227 56.1172 110.784 55.1536 115.289 53.2266V59.0078C112.997 59.9974 110.823 60.7005 108.766 61.1172C106.734 61.5599 104.273 61.7812 101.383 61.7812ZM99.625 22.8359C96.1875 22.8359 93.4401 23.9557 91.3828 26.1953C89.3516 28.4349 88.1536 31.5339 87.7891 35.4922H110.172C110.172 31.4036 109.26 28.2786 107.438 26.1172C105.615 23.9297 103.01 22.8359 99.625 22.8359Z" fill="#582EA2"/>
<path d="M152.711 61L138.961 16.1953H138.609C139.104 25.3099 139.352 31.3906 139.352 34.4375V61H128.531V3.89062H145.016L158.531 47.5625H158.766L173.102 3.89062H189.586V61H178.297V33.9688C178.297 32.6927 178.31 31.2214 178.336 29.5547C178.388 27.888 178.57 23.4609 178.883 16.2734H178.531L163.805 61H152.711ZM221.148 24.9844C218.622 24.9844 216.643 25.7917 215.211 27.4062C213.779 28.9948 212.958 31.2604 212.75 34.2031H229.469C229.417 31.2604 228.648 28.9948 227.164 27.4062C225.68 25.7917 223.674 24.9844 221.148 24.9844ZM222.828 61.7812C215.797 61.7812 210.302 59.8411 206.344 55.9609C202.385 52.0807 200.406 46.5859 200.406 39.4766C200.406 32.1589 202.229 26.5078 205.875 22.5234C209.547 18.513 214.612 16.5078 221.07 16.5078C227.242 16.5078 232.047 18.2656 235.484 21.7812C238.922 25.2969 240.641 30.1536 240.641 36.3516V42.1328H212.477C212.607 45.5182 213.609 48.1615 215.484 50.0625C217.359 51.9635 219.99 52.9141 223.375 52.9141C226.005 52.9141 228.492 52.6406 230.836 52.0938C233.18 51.5469 235.628 50.6745 238.18 49.4766V58.6953C236.096 59.737 233.87 60.5052 231.5 61C229.13 61.5208 226.24 61.7812 222.828 61.7812ZM280.797 48.0312C280.797 52.5104 279.234 55.9219 276.109 58.2656C273.01 60.6094 268.362 61.7812 262.164 61.7812C258.987 61.7812 256.279 61.5599 254.039 61.1172C251.799 60.7005 249.703 60.0755 247.75 59.2422V49.3984C249.964 50.4401 252.451 51.3125 255.211 52.0156C257.997 52.7188 260.445 53.0703 262.555 53.0703C266.878 53.0703 269.039 51.8203 269.039 49.3203C269.039 48.3828 268.753 47.6276 268.18 47.0547C267.607 46.4557 266.617 45.7917 265.211 45.0625C263.805 44.3073 261.93 43.4349 259.586 42.4453C256.227 41.0391 253.753 39.737 252.164 38.5391C250.602 37.3411 249.456 35.974 248.727 34.4375C248.023 32.875 247.672 30.9609 247.672 28.6953C247.672 24.8151 249.169 21.8203 252.164 19.7109C255.185 17.5755 259.456 16.5078 264.977 16.5078C270.237 16.5078 275.354 17.6536 280.328 19.9453L276.734 28.5391C274.547 27.6016 272.503 26.8333 270.602 26.2344C268.701 25.6354 266.76 25.3359 264.781 25.3359C261.266 25.3359 259.508 26.2865 259.508 28.1875C259.508 29.2552 260.068 30.1797 261.188 30.9609C262.333 31.7422 264.82 32.901 268.648 34.4375C272.06 35.8177 274.56 37.1068 276.148 38.3047C277.737 39.5026 278.909 40.8828 279.664 42.4453C280.419 44.0078 280.797 45.8698 280.797 48.0312ZM320.562 48.0312C320.562 52.5104 319 55.9219 315.875 58.2656C312.776 60.6094 308.128 61.7812 301.93 61.7812C298.753 61.7812 296.044 61.5599 293.805 61.1172C291.565 60.7005 289.469 60.0755 287.516 59.2422V49.3984C289.729 50.4401 292.216 51.3125 294.977 52.0156C297.763 52.7188 300.211 53.0703 302.32 53.0703C306.643 53.0703 308.805 51.8203 308.805 49.3203C308.805 48.3828 308.518 47.6276 307.945 47.0547C307.372 46.4557 306.383 45.7917 304.977 45.0625C303.57 44.3073 301.695 43.4349 299.352 42.4453C295.992 41.0391 293.518 39.737 291.93 38.5391C290.367 37.3411 289.221 35.974 288.492 34.4375C287.789 32.875 287.438 30.9609 287.438 28.6953C287.438 24.8151 288.935 21.8203 291.93 19.7109C294.951 17.5755 299.221 16.5078 304.742 16.5078C310.003 16.5078 315.12 17.6536 320.094 19.9453L316.5 28.5391C314.312 27.6016 312.268 26.8333 310.367 26.2344C308.466 25.6354 306.526 25.3359 304.547 25.3359C301.031 25.3359 299.273 26.2865 299.273 28.1875C299.273 29.2552 299.833 30.1797 300.953 30.9609C302.099 31.7422 304.586 32.901 308.414 34.4375C311.826 35.8177 314.326 37.1068 315.914 38.3047C317.503 39.5026 318.674 40.8828 319.43 42.4453C320.185 44.0078 320.562 45.8698 320.562 48.0312ZM357.594 61L355.289 55.0625H354.977C352.971 57.5885 350.901 59.3464 348.766 60.3359C346.656 61.2995 343.896 61.7812 340.484 61.7812C336.292 61.7812 332.984 60.5833 330.562 58.1875C328.167 55.7917 326.969 52.3802 326.969 47.9531C326.969 43.3177 328.583 39.9062 331.812 37.7188C335.068 35.5052 339.964 34.2812 346.5 34.0469L354.078 33.8125V31.8984C354.078 27.4714 351.812 25.2578 347.281 25.2578C343.792 25.2578 339.69 26.3125 334.977 28.4219L331.031 20.375C336.057 17.7448 341.63 16.4297 347.75 16.4297C353.609 16.4297 358.102 17.7057 361.227 20.2578C364.352 22.8099 365.914 26.6901 365.914 31.8984V61H357.594ZM354.078 40.7656L349.469 40.9219C346.005 41.026 343.427 41.651 341.734 42.7969C340.042 43.9427 339.195 45.6875 339.195 48.0312C339.195 51.3906 341.122 53.0703 344.977 53.0703C347.737 53.0703 349.938 52.276 351.578 50.6875C353.245 49.099 354.078 46.9896 354.078 44.3594V40.7656ZM416.227 17.3281V23.3828L409.391 25.1406C410.641 27.0938 411.266 29.2812 411.266 31.7031C411.266 36.3906 409.625 40.0495 406.344 42.6797C403.089 45.2839 398.557 46.5859 392.75 46.5859L390.602 46.4688L388.844 46.2734C387.62 47.2109 387.008 48.2526 387.008 49.3984C387.008 51.1172 389.195 51.9766 393.57 51.9766H400.992C405.784 51.9766 409.43 53.0052 411.93 55.0625C414.456 57.1198 415.719 60.1406 415.719 64.125C415.719 69.2292 413.583 73.1875 409.312 76C405.068 78.8125 398.961 80.2188 390.992 80.2188C384.898 80.2188 380.237 79.151 377.008 77.0156C373.805 74.9062 372.203 71.9375 372.203 68.1094C372.203 65.4792 373.023 63.2786 374.664 61.5078C376.305 59.737 378.714 58.474 381.891 57.7188C380.667 57.1979 379.599 56.3516 378.688 55.1797C377.776 53.9818 377.32 52.7188 377.32 51.3906C377.32 49.724 377.802 48.3438 378.766 47.25C379.729 46.1302 381.122 45.0365 382.945 43.9688C380.654 42.9792 378.831 41.3906 377.477 39.2031C376.148 37.0156 375.484 34.4375 375.484 31.4688C375.484 26.7031 377.034 23.0182 380.133 20.4141C383.232 17.8099 387.659 16.5078 393.414 16.5078C394.638 16.5078 396.083 16.625 397.75 16.8594C399.443 17.0677 400.523 17.224 400.992 17.3281H416.227ZM382.516 67.1719C382.516 68.8125 383.297 70.1016 384.859 71.0391C386.448 71.9766 388.661 72.4453 391.5 72.4453C395.771 72.4453 399.117 71.8594 401.539 70.6875C403.961 69.5156 405.172 67.9141 405.172 65.8828C405.172 64.2422 404.456 63.1094 403.023 62.4844C401.591 61.8594 399.378 61.5469 396.383 61.5469H390.211C388.023 61.5469 386.188 62.0547 384.703 63.0703C383.245 64.112 382.516 65.4792 382.516 67.1719ZM386.852 31.625C386.852 33.9948 387.385 35.8698 388.453 37.25C389.547 38.6302 391.201 39.3203 393.414 39.3203C395.654 39.3203 397.294 38.6302 398.336 37.25C399.378 35.8698 399.898 33.9948 399.898 31.625C399.898 26.3646 397.737 23.7344 393.414 23.7344C389.039 23.7344 386.852 26.3646 386.852 31.625ZM441.539 24.9844C439.013 24.9844 437.034 25.7917 435.602 27.4062C434.169 28.9948 433.349 31.2604 433.141 34.2031H449.859C449.807 31.2604 449.039 28.9948 447.555 27.4062C446.07 25.7917 444.065 24.9844 441.539 24.9844ZM443.219 61.7812C436.188 61.7812 430.693 59.8411 426.734 55.9609C422.776 52.0807 420.797 46.5859 420.797 39.4766C420.797 32.1589 422.62 26.5078 426.266 22.5234C429.938 18.513 435.003 16.5078 441.461 16.5078C447.633 16.5078 452.438 18.2656 455.875 21.7812C459.312 25.2969 461.031 30.1536 461.031 36.3516V42.1328H432.867C432.997 45.5182 434 48.1615 435.875 50.0625C437.75 51.9635 440.38 52.9141 443.766 52.9141C446.396 52.9141 448.883 52.6406 451.227 52.0938C453.57 51.5469 456.018 50.6745 458.57 49.4766V58.6953C456.487 59.737 454.26 60.5052 451.891 61C449.521 61.5208 446.63 61.7812 443.219 61.7812Z" fill="#E38125"/>
</svg>
